<?xml version="1.0" encoding="UTF-8"?>
<svg width="30px" height="30px" viewBox="0 0 30 30" version="1.1" xmlns="http://www.w3.org/2000/svg" xmlns:xlink="http://www.w3.org/1999/xlink">
    <title>logo-30</title>
    <g id="页面-1" stroke="none" stroke-width="1" fill="none" fill-rule="evenodd">
        <g id="logo-30">
            <rect id="矩形" x="0" y="0" width="30" height="30"></rect>
            <g id="编组" transform="translate(1.304348, 4.565217)" fill="#4D6BFE" fill-rule="nonzero">
                <path d="M27.4260617,1.75149447 C27.1325563,1.60434723 27.0057925,1.88483614 26.8343477,2.02726929 C26.775893,2.07328787 26.7260609,2.1329998 26.6761169,2.18822211 C26.247225,2.65716275 25.7462167,2.96515058 25.0907848,2.92833571 C24.133337,2.87322564 23.3157549,3.18121347 22.5933577,3.93064303 C22.4397182,3.00656731 21.9294153,2.45490544 21.1524827,2.10089903 C20.7454274,1.91693691 20.3349007,1.73308704 20.049906,1.33317427 C19.8515855,1.0480835 19.7977221,0.730891956 19.6979459,0.418190031 C19.6347879,0.229738296 19.571742,0.0365724624 19.3596477,0.00447169047 C19.1286284,-0.0323431809 19.0385947,0.165424512 18.9480011,0.330866952 C18.5867465,1.00666677 18.4463208,1.75149447 18.4606546,2.50541365 C18.4915616,4.20192822 19.1922343,5.55352786 20.5831652,6.51441845 C20.7413961,6.62475082 20.7821576,6.7350832 20.7322135,6.89603602 C20.6375886,7.2269209 20.5241506,7.5487143 20.4249344,7.87982366 C20.3618884,8.09128469 20.2672634,8.13719104 20.0453147,8.0452661 C19.282268,7.71887084 18.6229168,7.23612462 18.0398254,6.65236198 C17.0507986,5.67306395 16.1562848,4.59263727 15.041166,3.74668091 C14.7829687,3.55159121 14.5177291,3.3660456 14.2459804,3.19041719 C13.1077933,2.0594823 14.3950287,1.13080472 14.6931253,1.02047235 C15.0044359,0.905538114 14.8015241,0.510227209 13.7941322,0.514829068 C12.7867403,0.519318687 11.8653507,0.864233624 10.6912174,1.32397055 C10.5192127,1.3928862 10.3384734,1.44339441 10.1539267,1.48481114 C9.08752023,1.27795197 7.9809121,1.23193338 6.8244719,1.36527504 C4.64753788,1.61355094 2.90845427,2.66636647 1.62995347,4.46389746 C0.0945654863,6.62475082 -0.26724901,9.07967419 0.175976548,11.6404403 C0.640366742,14.3390377 1.98717669,16.5734086 4.05582392,18.3204314 C6.20129094,20.1317679 8.67184229,21.0190288 11.4904343,20.8489845 C13.2024182,20.7478558 15.1082434,20.5133855 17.2583016,18.6514285 C17.8007434,18.9272033 18.3700609,19.0376479 19.313735,19.1203691 C20.0413953,19.1892848 20.7413961,19.0835543 21.283166,18.96862 C22.132327,18.7847702 22.0733124,17.9802305 21.7665931,17.8330833 C19.2776767,16.6469261 19.8240379,17.1296723 19.3275088,16.7389633 C20.5923478,15.2080034 22.4981729,13.6173316 23.2435264,8.46369854 C23.302541,8.05446982 23.2527089,7.7969902 23.2435264,7.46599308 C23.2389351,7.26373577 23.283616,7.18561641 23.510156,7.16260711 C24.133337,7.08897737 24.7388248,6.91433121 25.2943685,6.60174153 C26.9065762,5.70056286 27.5574168,4.22022342 27.7110564,2.44570173 C27.7340127,2.17441653 27.7064651,1.89392762 27.4260617,1.75149447 Z M13.373863,17.7226387 C10.9623263,15.7825623 9.79211225,15.1434651 9.30890904,15.1710763 C8.85706086,15.1986874 8.93847192,15.72734 9.03768815,16.0721427 C9.14138367,16.4123435 9.27733006,16.6468139 9.46702791,16.9457102 C9.59782313,17.1433657 9.68841673,17.4375479 9.33578477,17.6583249 C8.55885225,18.1501626 7.20868283,17.4927702 7.14552487,17.4605572 C5.57340673,16.5134722 4.25873567,15.2630012 3.33286682,13.5527933 C2.43835299,11.9070114 1.91953944,10.1415812 1.83342513,8.25661489 C1.81058076,7.80147982 1.9418239,7.64063924 2.38392964,7.55780578 C2.96604816,7.44344447 3.56319996,7.42792635 4.15044888,7.51189943 C6.61237761,7.87971142 8.70857246,9.00604445 10.4652373,10.7897699 C11.4680379,11.8057705 12.2266053,13.0195389 13.008689,14.2056961 C13.839485,15.4653708 14.7338868,16.6652213 15.871962,17.6491212 C16.2738661,17.9939239 16.5943592,18.2558931 16.9016383,18.4490589 C15.9757695,18.5547895 14.4305271,18.5777988 13.373863,17.7226387 L13.373863,17.7226387 Z M14.5303032,10.11397 C14.5303032,9.91171273 14.6885341,9.75075991 14.8875264,9.75075991 C14.9326553,9.7515456 14.9730808,9.75917795 15.0090271,9.77376921 C15.112866,9.81352541 15.19239,9.89937054 15.2242569,10.006107 C15.2348952,10.0412382 15.2399344,10.0771552 15.2395985,10.11397 C15.2402859,10.1853198 15.2199519,10.2552865 15.1811438,10.315105 C15.1420018,10.3746973 15.0861231,10.4213312 15.0205613,10.4491201 C14.9769816,10.4674807 14.9302081,10.4770172 14.8829352,10.4771802 C14.835846,10.4769906 14.7892607,10.4674537 14.7458689,10.4491201 C14.6806604,10.4211724 14.6252272,10.3744027 14.5866303,10.3147682 C14.5482499,10.2549842 14.5286299,10.1850416 14.5303032,10.11397 L14.5303032,10.11397 Z M18.1212365,11.9989364 C17.891337,12.0954631 17.6607657,12.1781844 17.4389289,12.1873881 C17.0960394,12.2057955 16.721123,12.0632501 16.5180993,11.888604 C16.2016376,11.6173188 15.9757695,11.4655697 15.8811445,10.9921394 C15.840383,10.7897699 15.8627794,10.4771802 15.8989497,10.2979322 C15.9803607,9.91171273 15.8897671,9.66343683 15.6236974,9.43817023 C15.4070119,9.25432035 15.1311997,9.2036999 14.8285118,9.2036999 C14.7155218,9.2036999 14.6117143,9.1531917 14.5348945,9.11177497 C14.4974287,9.09392052 14.4641227,9.06837675 14.437134,9.03679834 C14.4098452,9.00546594 14.3894676,8.96870922 14.3773355,8.92893525 C14.3649316,8.88923207 14.3610017,8.8473571 14.3658013,8.80603195 C14.3702229,8.7646957 14.3833123,8.72476313 14.4042112,8.68885291 C14.4356782,8.62442688 14.5893178,8.46807592 14.6254881,8.44057701 C15.0365747,8.20150482 15.5107074,8.27962419 15.9487818,8.45898444 C16.3552772,8.62902874 16.6619964,8.94161843 17.105222,9.38306016 C17.5570702,9.91631459 17.6384812,10.0634618 17.8952564,10.4633746 C18.0988401,10.7759643 18.2840586,11.0978699 18.4101506,11.4655697 C18.4875303,11.6954381 18.3877541,11.8840021 18.1212365,11.9989364 L18.1212365,11.9989364 Z" id="形状"></path>
            </g>
        </g>
    </g>
</svg>